:SAMPLES-PER-SECOND 30
:FULLY-SPECIFIED
:DEGREES
352
root  70.7081 29.7393 -11.7374 -11.8698 -70.9591 22.4094
RightUpLeg  -32.9717 -13.5013 3.81314
RightLeg  75.762 -2.07936 -6.65524
RightFoot  -13.0393 0.113056 1.36686
RightToes  -29.0096 -0.137161 -0.245024
Spine  12.6428 -1.88912 -4.58882
Spine1  21.9869 -2.98549 -7.88918
HEad  -0.682904 -0.776308 14.226
LeftShoulder1  0 -2.42657e-020 -4.95415e-022
LeftArm  -34.2758 -32.2657 -76.0972
LeftForeArm  8.70158 -54.6674 -14.4244
LeftHand  0.873508 -4.20361 -23.8765
RightShoulder  0 2.42657e-020 1.07489e-018
RightArm  -34.8559 15.944 85.8782
RightForeArm  32.9239 32.349 6.40669
RightHand  -0.786617 20.8768 -3.89908
LeftUpLeg  -29.9504 1.61256 4.52271
LeftLeg  49.0488 -4.20502 -4.25479
LeftFoot  -14.9513 0.163328 1.24463
LeftToes  -43.032 2.01279e-006 2.21547e-008
353
root  70.5245 29.9094 -11.3698 -21.3924 -78.1247 31.3749
RightUpLeg  -36.2456 -16.6068 1.98861
RightLeg  80.1602 0.158125 0.274343
RightFoot  -7.80536 -0.0355254 -0.143207
RightToes  -24.5138 -0.108024 -0.212087
Spine  12.6567 -1.36172 -4.18976
Spine1  21.759 -1.94145 -7.45214
HEad  1.49318 1.83167 13.359
LeftShoulder1  0 -2.42657e-020 -4.95415e-022
LeftArm  -37.1607 -32.6629 -74.6496
LeftForeArm  13.5905 -56.415 -15.436
LeftHand  0.952711 -4.64983 -23.5506
RightShoulder  0 2.42657e-020 1.07489e-018
RightArm  -31.3484 16.6641 87.5078
RightForeArm  32.4156 34.0535 6.84072
RightHand  -0.732638 21.1492 -3.55401
LeftUpLeg  -26.6999 6.47712 4.25425
LeftLeg  48.471 -2.3558 -2.34364
LeftFoot  -16.0648 0.0910693 0.645328
LeftToes  -40.7976 2.01279e-006 2.21547e-008
354
root  70.1818 30.1934 -11.1605 -42.3131 -83.222 51.5067
RightUpLeg  -38.4159 -19.5496 0.233299
RightLeg  81.4169 1.38308 5.90586
RightFoot  -6.90781 -0.0656063 -0.709495
RightToes  -38.7448 -0.208534 -0.307922
Spine  12.796 -1.06913 -3.82703
Spine1  21.8442 -1.46187 -6.94055
HEad  5.5837 2.24298 14.6805
LeftShoulder1  0 -2.42657e-020 -4.95415e-022
LeftArm  -38.4543 -32.6599 -74.473
LeftForeArm  19.0011 -57.3837 -16.043
LeftHand  1.05865 -5.44444 -22.3896
RightShoulder  0 2.42657e-020 1.07489e-018
RightArm  -28.3953 16.0261 89.443
RightForeArm  32.24 35.3076 7.17156
RightHand  -0.761628 21.4361 -3.65332
LeftUpLeg  -22.5931 11.0553 4.44282
LeftLeg  46.2072 -1.38172 -1.27347
LeftFoot  -16.2481 0.0333365 0.233521
LeftToes  -39.4031 2.01279e-006 2.21547e-008
355
root  69.8131 30.5563 -11.0956 -91.0126 -85.6628 100.251
RightUpLeg  -41.3907 -21.578 -0.570634
RightLeg  79.8706 2.02661 7.82186
RightFoot  -8.23284 -0.100038 -1.01248
RightToes  -40.6656 -0.223822 -0.318851
Spine  12.5959 -0.889133 -3.19985
Spine1  21.397 -1.20859 -6.13743
HEad  9.92025 0.88329 16.0877
LeftShoulder1  0 -2.42657e-020 -4.95415e-022
LeftArm  -38.3466 -31.8177 -76.2118
LeftForeArm  24.686 -58.403 -16.7165
LeftHand  1.0976 -6.08903 -20.8115
RightShoulder  0 2.42657e-020 1.07489e-018
RightArm  -26.7701 15.1294 91.184
RightForeArm  31.4978 35.3533 7.18433
RightHand  -0.522409 22.0634 -2.30982
LeftUpLeg  -19.0513 14.6875 5.02693
LeftLeg  42.9225 -0.278593 -0.233429
LeftFoot  -15.6867 -0.030138 -0.21879
LeftToes  -38.5818 2.01279e-006 2.21547e-008
356
root  69.3838 30.8897 -11.1155 -138.444 -83.9636 148.233
RightUpLeg  -44.4576 -22.6904 -0.807196
RightLeg  75.7251 1.97732 5.82111
RightFoot  -8.61284 -0.0804197 -0.690425
RightToes  -38.5238 -0.2068 -0.306633
Spine  12.4398 -0.838283 -2.37938
Spine1  21.0356 -1.21498 -5.10774
HEad  13.4131 -0.876215 16.4244
LeftShoulder1  0 -2.42657e-020 -4.95415e-022
LeftArm  -36.9164 -30.5667 -78.8841
LeftForeArm  30.8919 -59.2261 -17.2893
LeftHand  1.00884 -6.78646 -17.2791
RightShoulder  0 2.42657e-020 1.07489e-018
RightArm  -26.4661 15.2399 92.5324
RightForeArm  31.0174 34.1556 6.86819
RightHand  -0.249192 22.4495 -0.885851
LeftUpLeg  -15.9019 17.0889 5.61728
LeftLeg  39.3142 1.41197 1.00666
LeftFoot  -14.9914 -0.105318 -0.80043
LeftToes  -37.3656 2.01279e-006 2.21547e-008
357
root  68.9298 31.1118 -11.2107 -157.101 -80.6459 167.756
RightUpLeg  -47.1448 -22.3905 -0.693499
RightLeg  69.4844 0.898369 1.83493
RightFoot  -9.83473 -0.0400349 -0.0877847
RightToes  -33.647 -0.169824 -0.276497
Spine  12.6523 -0.885819 -1.45467
Spine1  21.3301 -1.57788 -3.7932
HEad  14.9637 -1.5678 16.0466
LeftShoulder1  0 -2.42657e-020 -4.95415e-022
LeftArm  -34.4208 -29.8089 -81.3228
LeftForeArm  36.0874 -58.5154 -16.7922
LeftHand  0.794173 -8.11354 -11.5422
RightShoulder  0 2.42657e-020 1.07489e-018
RightArm  -26.4539 16.8868 93.4759
RightForeArm  29.8024 32.2612 6.38683
RightHand  -0.098375 22.1132 -0.133465
LeftUpLeg  -13.3458 18.6108 6.21624
LeftLeg  36.2629 3.71777 2.36819
LeftFoot  -14.4896 -0.193185 -1.51959
LeftToes  -35.9299 2.01279e-006 2.21547e-008
358
root  68.4461 31.1457 -11.3859 -163.616 -76.8499 175.651
RightUpLeg  -50.0729 -20.8091 -0.59365
RightLeg  62.5875 -1.10938 -1.94178
RightFoot  -11.6533 0.0316084 0.687334
RightToes  -26.0342 -0.117587 -0.22348
Spine  12.9962 -1.03458 -0.609928
Spine1  21.773 -2.43999 -2.36825
HEad  15.6974 -1.1345 15.0789
LeftShoulder1  0 -2.42657e-020 -4.95415e-022
LeftArm  -30.8826 -30.0091 -83.0984
LeftForeArm  41.3474 -53.6851 -13.9082
LeftHand  0.139627 -10.7155 -1.85989
RightShoulder  0 2.42657e-020 1.07489e-018
RightArm  -26.7625 19.4872 94.3303
RightForeArm  29.3354 30.101 5.86218
RightHand  -0.0354985 21.689 0.184757
LeftUpLeg  -11.6037 20.606 6.62948
LeftLeg  34.1086 5.61275 3.28332
LeftFoot  -14.4491 -0.273836 -2.15996
LeftToes  -35.4813 2.01279e-006 2.21547e-008
359
root  67.9367 30.9782 -11.6365 -164.363 -73.1211 178.616
RightUpLeg  -53.8985 -19.2596 -0.127219
RightLeg  56.1635 -3.81699 -5.02136
RightFoot  -12.5018 0.127706 1.5435
RightToes  -20.4636 -0.0840581 -0.180539
Spine  13.2745 -1.39497 0.0492434
Spine1  21.8447 -4.1401 -0.587879
HEad  15.5425 -0.274014 13.8069
LeftShoulder1  0 -2.42657e-020 -4.95415e-022
LeftArm  -27.8436 -31.8457 -84.0699
LeftForeArm  46.7436 -44.1987 -9.86162
LeftHand  -0.740952 -12.8249 6.21897
RightShoulder  0 2.42657e-020 1.07489e-018
RightArm  -27.6646 22.7417 95.3863
RightForeArm  29.2947 27.6501 5.29467
RightHand  -0.0466561 21.3695 0.122766
LeftUpLeg  -11.239 23.0238 6.43047
LeftLeg  33.0029 7.05944 3.94459
LeftFoot  -14.849 -0.362349 -2.7801
LeftToes  -35.8752 2.01279e-006 2.21547e-008
360
root  67.3213 30.5993 -12.0422 -164.531 -69.1112 -179.494
RightUpLeg  -57.3159 -17.388 0.774102
RightLeg  52.1504 -5.47785 -6.20109
RightFoot  -12.5436 0.166472 1.89228
RightToes  -17.3417 -0.0671411 -0.155113
Spine  14.0123 -1.65548 0.429331
Spine1  22.3245 -5.93611 1.26873
HEad  15.6381 0.655035 12.6645
LeftShoulder1  0 -2.42657e-020 -4.95415e-022
LeftArm  -25.412 -35.091 -84.2836
LeftForeArm  52.837 -33.4489 -6.65294
LeftHand  -1.15995 -13.7371 9.24197
RightShoulder  0 2.42657e-020 1.07489e-018
RightArm  -29.2951 26.5551 96.9524
RightForeArm  29.7874 24.65 4.63445
RightHand  -0.0842217 20.7425 -0.0902043
LeftUpLeg  -10.5855 26.0196 6.69715
LeftLeg  33.3452 8.02269 4.54064
LeftFoot  -15.789 -0.480375 -3.46328
LeftToes  -36.974 2.01279e-006 2.21547e-008
361
root  66.5504 30.1503 -12.5433 -163.432 -66.8614 -178.911
RightUpLeg  -60.3437 -18.0007 2.85407
RightLeg  51.7457 -4.82987 -5.40312
RightFoot  -13.3452 0.149281 1.65361
RightToes  -17.1661 -0.0662308 -0.153655
Spine  14.4213 -2.07709 1.11527
Spine1  22.287 -7.70665 3.09015
HEad  16.622 1.49165 10.9427
LeftShoulder1  0 -2.42657e-020 -4.95415e-022
LeftArm  -22.7976 -39.364 -85.2942
LeftForeArm  55.3534 -21.6569 -3.97247
LeftHand  -0.743829 -13.7554 5.79385
RightShoulder  0 2.42657e-020 1.07489e-018
RightArm  -31.7659 29.9899 97.6297
RightForeArm  30.0469 21.182 3.91113
RightHand  -0.170707 19.8213 -0.607196
LeftUpLeg  -10.2715 26.757 6.83861
LeftLeg  34.1526 9.22436 5.38361
LeftFoot  -16.3405 -0.595944 -4.14906
LeftToes  -39.7143 2.01279e-006 2.21547e-008
362
root  65.7362 29.707 -13.259 -162.942 -64.8835 -178.063
RightUpLeg  -61.963 -17.4267 4.56637
RightLeg  54.7885 -3.95101 -4.94261
RightFoot  -14.159 0.13036 1.42724
RightToes  -11.3299 -0.0385753 -0.103728
Spine  14.8146 -2.11567 2.01046
Spine1  22.4524 -8.13464 4.44808
HEad  17.063 2.61339 8.62453
LeftShoulder1  0 -2.42657e-020 -4.95415e-022
LeftArm  -21.661 -42.8845 -86.2946
LeftForeArm  62.1886 -13.586 -2.38958
LeftHand  0.322044 -14.5837 -2.8877
RightShoulder  0 2.42657e-020 1.07489e-018
RightArm  -36.2117 33.5983 97.3239
RightForeArm  32.1834 17.083 3.09899
RightHand  -0.182675 19.7998 -0.67687
LeftUpLeg  -9.52014 27.2542 7.83919
LeftLeg  35.4769 9.75499 5.99158
LeftFoot  -16.0276 -0.62531 -4.43939
LeftToes  -43.5799 2.01279e-006 2.21547e-008
